<svg viewBox="0 0 28 37" fill="none" xmlns="http://www.w3.org/2000/svg">
<path fill-rule="evenodd" clip-rule="evenodd" d="M19.5921 1.31337C19.908 1.67838 20.0691 2.17094 20.3912 3.15609L27.4292 24.6769C24.8271 23.4204 21.9983 22.5141 19.015 22.0252L14.4326 7.61078C14.3576 7.37492 14.1249 7.21313 13.8607 7.21313C13.5958 7.21313 13.3626 7.37577 13.2882 7.61244L8.76129 22.0179C5.76415 22.5047 2.92247 23.4126 0.309204 24.6736L7.38167 3.1511H7.38171C7.70487 2.16768 7.86643 1.67596 8.18234 1.3116C8.4612 0.989937 8.82395 0.740124 9.23597 0.585964C9.70269 0.411346 10.2551 0.411346 11.3599 0.411346H16.4114C17.5177 0.411346 18.0708 0.411346 18.5379 0.58633C18.9503 0.740808 19.3133 0.991123 19.5921 1.31337Z" fill="#6E7191"/>
<path fill-rule="evenodd" clip-rule="evenodd" d="M20.4343 25.7011C19.274 26.6246 16.9583 27.2544 14.2908 27.2544C11.0169 27.2544 8.2728 26.3056 7.54464 25.0297C7.28434 25.7609 7.22597 26.5979 7.22597 27.1325C7.22597 27.1325 7.05446 29.7577 9.01607 31.5838C9.01607 30.6356 9.8418 29.8672 10.8604 29.8672C12.6062 29.8672 12.6042 31.2849 12.6026 32.4351C12.6026 32.4696 12.6025 32.5038 12.6025 32.5377C12.6025 34.2836 13.7489 35.7802 15.3792 36.4113C15.1357 35.9451 14.9991 35.4214 14.9991 34.8684C14.9991 33.2032 16.0493 32.583 17.2698 31.8624C18.241 31.2891 19.32 30.6523 20.0636 29.3744C20.4516 28.7076 20.672 27.9441 20.672 27.1325C20.672 26.6335 20.5887 26.1525 20.4343 25.7011Z" fill="#FF5D01"/>
<path fill-rule="evenodd" clip-rule="evenodd" d="M20.4343 25.7011C19.274 26.6246 16.9583 27.2544 14.2908 27.2544C11.0169 27.2544 8.2728 26.3056 7.54464 25.0297C7.28434 25.7609 7.22597 26.5979 7.22597 27.1325C7.22597 27.1325 7.05446 29.7577 9.01607 31.5838C9.01607 30.6356 9.8418 29.8672 10.8604 29.8672C12.6062 29.8672 12.6042 31.2849 12.6026 32.4351C12.6026 32.4696 12.6025 32.5038 12.6025 32.5377C12.6025 34.2836 13.7489 35.7802 15.3792 36.4113C15.1357 35.9451 14.9991 35.4214 14.9991 34.8684C14.9991 33.2032 16.0493 32.583 17.2698 31.8624C18.241 31.2891 19.32 30.6523 20.0636 29.3744C20.4516 28.7076 20.672 27.9441 20.672 27.1325C20.672 26.6335 20.5887 26.1525 20.4343 25.7011Z" fill="#A0A3BD"/>
</svg>
