<svg
  viewBox="0 0 33 38"
  fill="none"
  xmlns="http://www.w3.org/2000/svg"
>
  <path
    d="M16.5359 37.9694C16.0327 37.9694 15.5294 37.8256 15.098 37.6099L10.5686 34.9497C9.92157 34.5903 10.2092 34.4465 10.4248 34.3746C11.3595 34.087 11.5033 34.0151 12.5098 33.4399C12.5817 33.368 12.7255 33.4399 12.8693 33.4399L16.3921 35.5249C16.5359 35.5968 16.6797 35.5968 16.8235 35.5249L30.4118 27.6883C30.5555 27.6164 30.6275 27.4726 30.6275 27.3288V11.5837C30.6275 11.4399 30.5555 11.2961 30.4118 11.2242L16.8235 3.38765C16.6797 3.31575 16.5359 3.31575 16.3921 3.38765L2.73203 11.1524C2.58824 11.2242 2.51634 11.368 2.51634 11.5118V27.185C2.51634 27.3288 2.58824 27.4726 2.73203 27.5445L6.47059 29.7014C8.48366 30.7079 9.70588 29.5576 9.70588 28.3354V12.8778C9.70588 12.6622 9.84968 12.5184 10.1373 12.5184H11.8627C12.0784 12.5184 12.2222 12.6622 12.2222 12.8778V28.4073C12.2222 31.1393 10.7843 32.6491 8.19607 32.6491C7.40523 32.6491 6.75817 32.6491 5.03268 31.7863L1.43791 29.7014C0.575163 29.1981 0 28.2635 0 27.185V11.5837C0 10.5772 0.575163 9.64255 1.43791 9.06738L15.098 1.23078C15.9608 0.727516 17.1111 0.727516 17.9739 1.23078L31.5621 9.06738C32.4248 9.57065 33 10.5053 33 11.5837V27.2569C33 28.2635 32.4248 29.1981 31.5621 29.7733L17.9739 37.6099C17.4706 37.8256 17.0392 37.9694 16.5359 37.9694Z"
    fill="#A0A3BD"
  />
  <path
    d="M20.7058 27.185C14.7385 27.185 13.5162 24.453 13.5162 22.1523C13.5162 21.9367 13.66 21.7929 13.8757 21.7929H15.6012C15.8169 21.7929 15.9607 21.9367 15.9607 22.1523C16.2483 23.9497 17.0391 24.8125 20.6339 24.8125C23.5097 24.8125 24.7319 24.1654 24.7319 22.6556C24.7319 21.7929 24.3725 21.1458 19.9149 20.7144C16.1764 20.355 13.8757 19.4922 13.8757 16.5445C13.8757 13.8125 16.1764 12.1589 20.0587 12.1589C24.4443 12.1589 26.6012 13.6687 26.8169 16.904C26.8169 17.0478 26.8169 17.1197 26.745 17.1916C26.6731 17.2635 26.6012 17.3353 26.4574 17.3353H24.66C24.4443 17.3353 24.3006 17.1916 24.3006 17.0478C23.8692 15.1785 22.8626 14.5314 20.0587 14.5314C16.8953 14.5314 16.5359 15.6099 16.5359 16.4726C16.5359 17.4791 16.9672 17.7667 21.2091 18.3419C25.379 18.917 27.3921 19.7079 27.3921 22.5837C27.464 25.4595 25.0195 27.185 20.7058 27.185Z"
    fill="#A0A3BD"
  />
</svg>
