<svg
  viewBox="0 0 28 33"
  fill="none"
  xmlns="http://www.w3.org/2000/svg"
>
  <g clip-path="url(#clip0_117_305)">
    <path
      d="M26.0044 4.46637C23.0044 0.145254 17.032 -1.12081 12.7384 1.60397L5.16956 6.44802C3.10534 7.74161 1.67415 9.86088 1.2613 12.2554C0.903505 14.2646 1.20626 16.3288 2.16956 18.1178C1.50901 19.1086 1.06864 20.2095 0.875982 21.3655C0.435614 23.815 1.0136 26.3472 2.44479 28.3563C5.47232 32.6775 11.4173 33.9435 15.7109 31.2187L23.2797 26.4022C25.3439 25.1086 26.7751 22.9894 27.1879 20.5949C27.5457 18.5857 27.243 16.5215 26.2797 14.7325C26.9402 13.7416 27.3806 12.6407 27.5733 11.4847C28.0411 9.00766 27.4632 6.47555 26.0044 4.46637Z"
      fill="#A0A3BD"
    />
    <path
      d="M11.9953 28.7692C9.54574 29.4022 6.98611 28.4389 5.55492 26.3747C4.67418 25.1637 4.34391 23.6499 4.59161 22.1637C4.64666 21.916 4.7017 21.6958 4.75675 21.4481L4.89436 21.0077L5.27969 21.2829C6.18794 21.9435 7.17877 22.4389 8.25217 22.7692L8.52739 22.8517L8.49987 23.127C8.47235 23.5123 8.58244 23.9251 8.80262 24.2554C9.24299 24.8884 10.0136 25.1912 10.7568 24.9985C10.9219 24.9435 11.087 24.8884 11.2246 24.8059L18.7659 19.9893C19.1513 19.7416 19.399 19.3838 19.4815 18.9435C19.5641 18.5031 19.454 18.0352 19.2063 17.6774C18.7659 17.0444 17.9953 16.7692 17.2522 16.9618C17.087 17.0169 16.9219 17.0719 16.7843 17.1545L13.8944 18.9985C13.4265 19.3013 12.9035 19.5215 12.3531 19.6591C9.90354 20.2921 7.34391 19.3288 5.91271 17.2646C5.0595 16.0536 4.7017 14.5398 4.97693 13.0536C5.22464 11.6224 6.10537 10.3288 7.34391 9.55813L14.9127 4.7416C15.3806 4.43885 15.9035 4.21867 16.454 4.05353C18.9036 3.4205 21.4632 4.38381 22.8944 6.44803C23.7751 7.65904 24.1054 9.17281 23.8577 10.659C23.8026 10.9068 23.7476 11.1269 23.665 11.3746L23.5274 11.815L23.1421 11.5398C22.2338 10.8792 21.243 10.3838 20.1696 10.0535L19.8944 9.97097L19.9219 9.69574C19.9494 9.31042 19.8393 8.89758 19.6191 8.5673C19.1788 7.93427 18.4081 7.65904 17.665 7.8517C17.4999 7.90675 17.3347 7.9618 17.1971 8.04437L9.65584 12.8609C9.27052 13.1086 9.02281 13.4664 8.94024 13.9068C8.85767 14.3471 8.96776 14.815 9.21547 15.1728C9.65584 15.8059 10.4265 16.0811 11.1696 15.8884C11.3347 15.8334 11.4999 15.7783 11.6375 15.6958L14.5274 13.8517C14.9953 13.549 15.5182 13.3288 16.0687 13.1636C18.5182 12.5306 21.0779 13.4939 22.5091 15.5581C23.3898 16.7692 23.7201 18.2829 23.4724 19.7692C23.2247 21.2004 22.3439 22.4939 21.1054 23.2646L13.5366 28.0811C13.0687 28.3839 12.5457 28.604 11.9953 28.7692Z"
      fill="white"
    />
  </g>
  <defs>
    <clipPath id="clip0_117_305">
      <rect
        width="27"
        height="32.4771"
        fill="white"
        transform="translate(0.738403 0.172791)"
      />
    </clipPath>
  </defs>
</svg>
