<svg width="227" height="80" viewBox="0 0 227 80" fill="none" xmlns="http://www.w3.org/2000/svg">
<path fill-rule="evenodd" clip-rule="evenodd" d="M4.80214 28.7605C5.37165 28.191 6.29502 28.191 6.86453 28.7605L15.6145 37.5105C16.1841 38.08 16.1841 39.0034 15.6145 39.5729L6.86453 48.3229C6.29502 48.8924 5.37165 48.8924 4.80214 48.3229C4.23262 47.7533 4.23262 46.83 4.80214 46.2605L12.5209 38.5417L4.80214 30.8229C4.23262 30.2534 4.23262 29.33 4.80214 28.7605Z" fill="black"/>
<path fill-rule="evenodd" clip-rule="evenodd" d="M16.0415 50.2083C16.0415 49.4029 16.6944 48.75 17.4998 48.75H29.1665C29.9719 48.75 30.6248 49.4029 30.6248 50.2083C30.6248 51.0138 29.9719 51.6667 29.1665 51.6667H17.4998C16.6944 51.6667 16.0415 51.0138 16.0415 50.2083Z" fill="black"/>
<path d="M45.24 49.5V29.62H48.88V37.908H57.252V29.62H60.892V49.5H57.252V41.072H48.88V49.5H45.24ZM69.6037 49.836C66.4677 49.836 64.3957 48.352 64.3957 45.748C64.3957 43.172 65.9917 41.8 69.2677 41.156L74.2237 40.176C74.2237 38.076 73.2437 36.984 71.3677 36.984C69.6037 36.984 68.6517 37.796 68.3157 39.308L64.6477 39.14C65.2357 36.004 67.6437 34.212 71.3677 34.212C75.6237 34.212 77.8077 36.452 77.8077 40.428V45.86C77.8077 46.672 78.0877 46.896 78.6477 46.896H79.1237V49.5C78.8997 49.556 78.3117 49.612 77.8357 49.612C76.2117 49.612 75.0077 49.024 74.6997 47.176C73.9717 48.772 72.0677 49.836 69.6037 49.836ZM70.3317 47.232C72.7117 47.232 74.2237 45.72 74.2237 43.452V42.612L70.3597 43.396C68.7637 43.704 68.1197 44.376 68.1197 45.412C68.1197 46.588 68.9037 47.232 70.3317 47.232ZM88.4253 49.836C83.9733 49.836 81.0613 46.756 81.0613 42.024C81.0613 37.32 83.9733 34.212 88.4253 34.212C92.2333 34.212 94.9493 36.284 95.3973 39.84L91.7013 40.036C91.4213 38.132 90.1613 37.124 88.4253 37.124C86.1013 37.124 84.7853 38.944 84.7853 42.024C84.7853 45.132 86.1013 46.924 88.4253 46.924C90.1613 46.924 91.4213 45.916 91.7013 43.816L95.3973 43.984C94.9773 47.568 92.2893 49.836 88.4253 49.836ZM97.9647 49.5V29.62H101.549V36.564C102.333 34.968 103.929 34.212 105.805 34.212C109.109 34.212 110.873 36.564 110.873 39.896V49.5H107.289V40.764C107.289 38.328 106.477 37.124 104.741 37.124C102.781 37.124 101.549 38.412 101.549 40.848V49.5H97.9647ZM114.931 49.5V34.548H118.515V49.5H114.931ZM114.875 32.56V29.368H118.599V32.56H114.875ZM122.245 49.5V29.62H125.829V41.296L131.961 34.548H136.385L130.533 40.764L136.581 49.5H132.549L128.181 42.892L125.829 45.384V49.5H122.245ZM144.725 49.836C140.273 49.836 137.361 46.756 137.361 42.024C137.361 37.292 140.273 34.212 144.725 34.212C149.149 34.212 152.061 37.292 152.061 42.024C152.061 46.756 149.149 49.836 144.725 49.836ZM144.725 46.924C147.021 46.924 148.365 45.132 148.365 42.024C148.365 38.944 147.021 37.124 144.725 37.124C142.401 37.124 141.085 38.944 141.085 42.024C141.085 45.132 142.401 46.924 144.725 46.924ZM162.377 49.5V29.62H166.017V46.336H175.453V49.5H162.377ZM183.05 49.836C179.914 49.836 177.842 48.352 177.842 45.748C177.842 43.172 179.438 41.8 182.714 41.156L187.67 40.176C187.67 38.076 186.69 36.984 184.814 36.984C183.05 36.984 182.098 37.796 181.762 39.308L178.094 39.14C178.682 36.004 181.09 34.212 184.814 34.212C189.07 34.212 191.254 36.452 191.254 40.428V45.86C191.254 46.672 191.534 46.896 192.094 46.896H192.57V49.5C192.346 49.556 191.758 49.612 191.282 49.612C189.658 49.612 188.454 49.024 188.146 47.176C187.418 48.772 185.514 49.836 183.05 49.836ZM183.778 47.232C186.158 47.232 187.67 45.72 187.67 43.452V42.612L183.806 43.396C182.21 43.704 181.566 44.376 181.566 45.412C181.566 46.588 182.35 47.232 183.778 47.232ZM203.574 49.836C201.474 49.836 199.878 48.884 199.038 47.288L198.954 49.5H195.538V29.62H199.122V36.676C199.906 35.332 201.502 34.212 203.574 34.212C207.438 34.212 209.874 37.264 209.874 42.024C209.874 46.784 207.438 49.836 203.574 49.836ZM202.762 46.924C204.806 46.924 206.15 45.076 206.15 42.024C206.15 38.916 204.834 37.124 202.79 37.124C200.466 37.124 199.122 38.916 199.122 42.024C199.122 45.076 200.466 46.924 202.762 46.924ZM219.102 49.836C214.678 49.836 212.354 47.736 212.13 44.796L215.798 44.628C216.05 46.196 217.03 47.092 219.102 47.092C220.782 47.092 221.79 46.588 221.79 45.412C221.79 44.404 221.286 43.956 218.514 43.48C213.922 42.696 212.494 41.464 212.494 38.916C212.494 36.144 214.678 34.212 218.822 34.212C222.854 34.212 224.926 36.368 225.346 39.252L221.706 39.42C221.454 37.908 220.446 36.956 218.794 36.956C217.086 36.956 216.218 37.712 216.218 38.804C216.218 40.008 217.002 40.484 219.27 40.848C223.974 41.576 225.514 42.864 225.514 45.356C225.514 48.24 222.91 49.836 219.102 49.836Z" fill="black"/>
</svg>
