<svg
  viewBox="0 0 120 33"
  fill="none"
  xmlns="http://www.w3.org/2000/svg"
>
  <path
    d="M8.11455 27.4534C6.69283 26.157 6.27779 23.4331 6.87011 21.4597C7.89719 22.7039 9.32027 23.0981 10.7943 23.3205C13.0699 23.6639 15.3047 23.5355 17.4186 22.4979C17.6604 22.3791 17.8839 22.2212 18.1482 22.0613C18.3465 22.6353 18.3982 23.2148 18.3289 23.8046C18.1604 25.2411 17.4438 26.3507 16.3039 27.1918C15.8482 27.5283 15.3658 27.829 14.8951 28.1462C13.4489 29.1213 13.0577 30.2645 13.6011 31.9275C13.614 31.968 13.6256 32.0085 13.6548 32.1074C12.9164 31.7778 12.377 31.2979 11.9661 30.6669C11.532 30.0008 11.3255 29.2641 11.3146 28.4669C11.3092 28.0789 11.3092 27.6875 11.2569 27.3051C11.1292 26.3726 10.6904 25.9552 9.86371 25.9311C9.01527 25.9064 8.34415 26.4296 8.16619 27.2536C8.15259 27.3167 8.13291 27.3793 8.11319 27.4527L8.11455 27.4534Z"
    fill="#A0A3BD"
  />
  <path
    d="M0 21.131C0 21.131 4.20996 19.0852 8.43172 19.0852L11.6148 9.25876C11.7339 8.78356 12.0819 8.4606 12.4747 8.4606C12.8675 8.4606 13.2154 8.78356 13.3346 9.25876L16.5177 19.0852C21.5177 19.0852 24.9494 21.131 24.9494 21.131C24.9494 21.131 17.7984 1.69877 17.7844 1.65978C17.5792 1.08526 17.2327 0.71524 16.7656 0.71524H8.18452C7.7174 0.71524 7.38492 1.08526 7.16568 1.65978C7.15024 1.69803 0 21.131 0 21.131Z"
    fill="#A0A3BD"
  />
  <path
    d="M44.3867 18.3013C44.3867 20.0232 42.2395 21.0517 39.2666 21.0517C37.3318 21.0517 36.6475 20.5733 36.6475 19.5688C36.6475 18.5166 37.4969 18.0143 39.4318 18.0143C41.1779 18.0143 42.6643 18.0382 44.3867 18.2535V18.3013ZM44.4103 16.1728C43.3487 15.9337 41.7443 15.7902 39.8329 15.7902C34.2644 15.7902 31.6453 17.1055 31.6453 20.1668C31.6453 23.3476 33.4385 24.5673 37.5913 24.5673C41.1071 24.5673 43.4903 23.6824 44.3631 21.5061H44.5047C44.4811 22.0322 44.4575 22.5583 44.4575 22.9649C44.4575 24.0889 44.6463 24.1846 45.5667 24.1846H49.9083C49.6723 23.515 49.5307 21.6256 49.5307 19.9993C49.5307 18.2535 49.6015 16.9381 49.6015 15.1684C49.6015 11.557 47.4307 9.26117 40.6351 9.26117C37.7093 9.26117 34.4531 9.76337 31.9756 10.5048C32.2115 11.4853 32.5419 13.4703 32.7071 14.7618C34.8543 13.7573 37.8981 13.3268 40.2575 13.3268C43.5139 13.3268 44.4103 14.0682 44.4103 15.5749V16.1728Z"
    fill="#A0A3BD"
  />
  <path
    d="M56.3231 19.3058C55.7331 19.3775 54.9311 19.3775 54.1051 19.3775C53.2319 19.3775 52.4299 19.3536 51.8871 19.2818C51.8871 19.4732 51.8635 19.6884 51.8635 19.8798C51.8635 22.8692 53.8219 24.6151 60.7119 24.6151C67.2007 24.6151 69.3007 22.8932 69.3007 19.8558C69.3007 16.986 67.9087 15.5749 61.7499 15.264C56.9603 15.0488 56.5355 14.5226 56.5355 13.9247C56.5355 13.2312 57.1491 12.8724 60.3579 12.8724C63.6851 12.8724 64.5815 13.3268 64.5815 14.2834V14.4987C65.0535 14.4748 65.9031 14.4509 66.7759 14.4509C67.6019 14.4509 68.4983 14.4748 69.0175 14.5226C69.0175 14.3074 69.0411 14.116 69.0411 13.9486C69.0411 10.433 66.1151 9.28503 60.4523 9.28503C54.0815 9.28503 51.9343 10.8396 51.9343 13.8769C51.9343 16.6033 53.6567 18.3013 59.7679 18.5644C64.2747 18.7079 64.7703 19.2101 64.7703 19.9037C64.7703 20.645 64.0387 20.9799 60.8771 20.9799C57.2435 20.9799 56.3231 20.4776 56.3231 19.4493V19.3058Z"
    fill="#A0A3BD"
  />
  <path
    d="M77.0887 6.70215C75.3663 8.30451 72.2751 9.90687 70.5527 10.3373C70.5763 11.2222 70.5763 12.8485 70.5763 13.7334L72.1571 13.7573C72.1335 15.4553 72.1099 17.5121 72.1099 18.8753C72.1099 22.0561 73.7851 24.4477 78.9999 24.4477C81.1943 24.4477 82.6571 24.2085 84.4739 23.8258C84.2851 22.654 84.0731 20.8603 84.0023 19.4971C82.9167 19.8558 81.5483 20.0471 80.0379 20.0471C77.9379 20.0471 77.0887 19.4732 77.0887 17.823C77.0887 16.388 77.0887 15.0487 77.1123 13.8051C79.8023 13.829 82.4919 13.8769 84.0731 13.9247C84.0495 12.6811 84.0967 10.8874 84.1675 9.69163C81.8787 9.73943 79.3067 9.76335 77.1831 9.76335C77.2067 8.71107 77.2303 7.70659 77.2539 6.70215H77.0887Z"
    fill="#A0A3BD"
  />
  <path
    d="M91.1815 13.0159C91.2051 11.7723 91.2287 10.72 91.2523 9.69163H86.5095C86.5803 11.7484 86.5803 13.8529 86.5803 16.9381C86.5803 20.0232 86.5567 22.1517 86.5095 24.1846H91.9363C91.8419 22.7496 91.8183 20.3341 91.8183 18.2774C91.8183 15.0248 93.1399 14.0921 96.1363 14.0921C97.5287 14.0921 98.5195 14.2595 99.3927 14.5704C99.4163 13.3507 99.6523 10.9831 99.7939 9.93079C98.8971 9.66771 97.9059 9.50031 96.7027 9.50031C94.1307 9.47639 92.2431 10.5287 91.3699 13.0398L91.1815 13.0159Z"
    fill="#A0A3BD"
  />
  <path
    d="M114.807 16.8424C114.807 19.4493 112.92 20.669 109.946 20.669C106.997 20.669 105.109 19.521 105.109 16.8424C105.109 14.1639 107.02 13.1594 109.946 13.1594C112.896 13.1594 114.807 14.2356 114.807 16.8424ZM119.738 16.7229C119.738 11.5332 115.68 9.21332 109.946 9.21332C104.189 9.21332 100.272 11.5332 100.272 16.7229C100.272 21.8887 103.93 24.6629 109.923 24.6629C115.963 24.6629 119.738 21.8887 119.738 16.7229Z"
    fill="#A0A3BD"
  />
</svg>
